{
    "asset" : {
        "generator" : "Khronos glTF Blender I/O v3.4.50",
        "version" : "2.0"
    },
    "scene" : 0,
    "scenes" : [
        {
            "name" : "Scene",
            "nodes" : [
                0
            ]
        }
    ],
    "nodes" : [
        {
            "mesh" : 0,
            "name" : "Circle.005",
            "scale" : [
                0.33901965618133545,
                0.33901965618133545,
                0.33901965618133545
            ],
            "translation" : [
                0,
                -0.4417579770088196,
                -9.593591690063477
            ]
        }
    ],
    "materials" : [
        {
            "doubleSided" : true,
            "name" : "Material.021",
            "pbrMetallicRoughness" : {}
        },
        {
            "doubleSided" : true,
            "name" : "Material.006",
            "pbrMetallicRoughness" : {}
        },
        {
            "doubleSided" : true,
            "name" : "Material.015",
            "pbrMetallicRoughness" : {}
        },
        {
            "doubleSided" : true,
            "name" : "Material.012",
            "pbrMetallicRoughness" : {}
        }
    ],
    "meshes" : [
        {
            "extras" : {
                "targetNames" : [
                    "Talk",
                    "Malfunction"
                ]
            },
            "name" : "Circle.006",
            "primitives" : [
                {
                    "attributes" : {
                        "POSITION" : 0,
                        "TEXCOORD_0" : 1,
                        "NORMAL" : 2
                    },
                    "indices" : 3,
                    "material" : 0,
                    "targets" : [
                        {
                            "POSITION" : 4,
                            "NORMAL" : 5
                        },
                        {
                            "POSITION" : 6,
                            "NORMAL" : 7
                        }
                    ]
                },
                {
                    "attributes" : {
                        "POSITION" : 8,
                        "TEXCOORD_0" : 9,
                        "NORMAL" : 10
                    },
                    "indices" : 11,
                    "material" : 1,
                    "targets" : [
                        {
                            "POSITION" : 12,
                            "NORMAL" : 13
                        },
                        {
                            "POSITION" : 14,
                            "NORMAL" : 15
                        }
                    ]
                },
                {
                    "attributes" : {
                        "POSITION" : 16,
                        "TEXCOORD_0" : 17,
                        "NORMAL" : 18
                    },
                    "indices" : 19,
                    "material" : 2,
                    "targets" : [
                        {
                            "POSITION" : 20,
                            "NORMAL" : 21
                        },
                        {
                            "POSITION" : 22,
                            "NORMAL" : 23
                        }
                    ]
                },
                {
                    "attributes" : {
                        "POSITION" : 24,
                        "TEXCOORD_0" : 25,
                        "NORMAL" : 26
                    },
                    "indices" : 27,
                    "material" : 3,
                    "targets" : [
                        {
                            "POSITION" : 28,
                            "NORMAL" : 29
                        },
                        {
                            "POSITION" : 30,
                            "NORMAL" : 31
                        }
                    ]
                }
            ],
            "weights" : [
                0,
                0
            ]
        }
    ],
    "accessors" : [
        {
            "bufferView" : 0,
            "componentType" : 5126,
            "count" : 1747,
            "max" : [
                6.708048343658447,
                32.94007110595703,
                6.688694953918457
            ],
            "min" : [
                -7.959207534790039,
                -1.1920928955078125e-07,
                -6.690491676330566
            ],
            "type" : "VEC3"
        },
        {
            "bufferView" : 1,
            "componentType" : 5126,
            "count" : 1747,
            "type" : "VEC2"
        },
        {
            "bufferView" : 2,
            "componentType" : 5126,
            "count" : 1747,
            "type" : "VEC3"
        },
        {
            "bufferView" : 3,
            "componentType" : 5123,
            "count" : 9351,
            "type" : "SCALAR"
        },
        {
            "bufferView" : 4,
            "componentType" : 5126,
            "count" : 1747,
            "max" : [
                0,
                0,
                0
            ],
            "min" : [
                0,
                -3.4507713317871094,
                0
            ],
            "type" : "VEC3"
        },
        {
            "bufferView" : 5,
            "componentType" : 5126,
            "count" : 1747,
            "type" : "VEC3"
        },
        {
            "bufferView" : 6,
            "componentType" : 5126,
            "count" : 1747,
            "max" : [
                0,
                9.646766662597656,
                0
            ],
            "min" : [
                0,
                -3.664005756378174,
                0
            ],
            "type" : "VEC3"
        },
        {
            "bufferView" : 7,
            "componentType" : 5126,
            "count" : 1747,
            "type" : "VEC3"
        },
        {
            "bufferView" : 8,
            "componentType" : 5126,
            "count" : 441,
            "max" : [
                6.184402942657471,
                31.586650848388672,
                6.176760196685791
            ],
            "min" : [
                -6.202884197235107,
                1.2152060270309448,
                -6.075435638427734
            ],
            "type" : "VEC3"
        },
        {
            "bufferView" : 9,
            "componentType" : 5126,
            "count" : 441,
            "type" : "VEC2"
        },
        {
            "bufferView" : 10,
            "componentType" : 5126,
            "count" : 441,
            "type" : "VEC3"
        },
        {
            "bufferView" : 11,
            "componentType" : 5123,
            "count" : 2202,
            "type" : "SCALAR"
        },
        {
            "bufferView" : 12,
            "componentType" : 5126,
            "count" : 441,
            "max" : [
                0,
                0,
                0
            ],
            "min" : [
                0,
                0,
                0
            ],
            "type" : "VEC3"
        },
        {
            "bufferView" : 13,
            "componentType" : 5126,
            "count" : 441,
            "type" : "VEC3"
        },
        {
            "bufferView" : 14,
            "componentType" : 5126,
            "count" : 441,
            "max" : [
                0,
                4.408756256103516,
                0
            ],
            "min" : [
                0,
                -3.664005756378174,
                0
            ],
            "type" : "VEC3"
        },
        {
            "bufferView" : 15,
            "componentType" : 5126,
            "count" : 441,
            "type" : "VEC3"
        },
        {
            "bufferView" : 16,
            "componentType" : 5126,
            "count" : 18174,
            "max" : [
                5.7642693519592285,
                32.879737854003906,
                6.934284687042236
            ],
            "min" : [
                -5.771383285522461,
                1.7541990280151367,
                -7.096197128295898
            ],
            "type" : "VEC3"
        },
        {
            "bufferView" : 17,
            "componentType" : 5126,
            "count" : 18174,
            "type" : "VEC2"
        },
        {
            "bufferView" : 18,
            "componentType" : 5126,
            "count" : 18174,
            "type" : "VEC3"
        },
        {
            "bufferView" : 19,
            "componentType" : 5123,
            "count" : 97908,
            "type" : "SCALAR"
        },
        {
            "bufferView" : 20,
            "componentType" : 5126,
            "count" : 18174,
            "max" : [
                0,
                0,
                0
            ],
            "min" : [
                0,
                0,
                0
            ],
            "type" : "VEC3"
        },
        {
            "bufferView" : 21,
            "componentType" : 5126,
            "count" : 18174,
            "type" : "VEC3"
        },
        {
            "bufferView" : 22,
            "componentType" : 5126,
            "count" : 18174,
            "max" : [
                0,
                9.682147979736328,
                9.5367431640625e-07
            ],
            "min" : [
                0,
                -3.702434778213501,
                -1.9073486328125e-06
            ],
            "type" : "VEC3"
        },
        {
            "bufferView" : 23,
            "componentType" : 5126,
            "count" : 18174,
            "type" : "VEC3"
        },
        {
            "bufferView" : 24,
            "componentType" : 5126,
            "count" : 75,
            "max" : [
                -5.734790325164795,
                18.19220733642578,
                0.37968385219573975
            ],
            "min" : [
                -5.957793712615967,
                16.73033905029297,
                -1.3181604146957397
            ],
            "type" : "VEC3"
        },
        {
            "bufferView" : 25,
            "componentType" : 5126,
            "count" : 75,
            "type" : "VEC2"
        },
        {
            "bufferView" : 26,
            "componentType" : 5126,
            "count" : 75,
            "type" : "VEC3"
        },
        {
            "bufferView" : 27,
            "componentType" : 5123,
            "count" : 324,
            "type" : "SCALAR"
        },
        {
            "bufferView" : 28,
            "componentType" : 5126,
            "count" : 75,
            "max" : [
                0,
                0,
                0
            ],
            "min" : [
                0,
                0,
                0
            ],
            "type" : "VEC3"
        },
        {
            "bufferView" : 29,
            "componentType" : 5126,
            "count" : 75,
            "type" : "VEC3"
        },
        {
            "bufferView" : 30,
            "componentType" : 5126,
            "count" : 75,
            "max" : [
                0,
                0,
                0
            ],
            "min" : [
                0,
                0,
                0
            ],
            "type" : "VEC3"
        },
        {
            "bufferView" : 31,
            "componentType" : 5126,
            "count" : 75,
            "type" : "VEC3"
        }
    ],
    "bufferViews" : [
        {
            "buffer" : 0,
            "byteLength" : 20964,
            "byteOffset" : 0,
            "target" : 34962
        },
        {
            "buffer" : 0,
            "byteLength" : 13976,
            "byteOffset" : 20964,
            "target" : 34962
        },
        {
            "buffer" : 0,
            "byteLength" : 20964,
            "byteOffset" : 34940,
            "target" : 34962
        },
        {
            "buffer" : 0,
            "byteLength" : 18702,
            "byteOffset" : 55904,
            "target" : 34963
        },
        {
            "buffer" : 0,
            "byteLength" : 20964,
            "byteOffset" : 74608,
            "target" : 34962
        },
        {
            "buffer" : 0,
            "byteLength" : 20964,
            "byteOffset" : 95572,
            "target" : 34962
        },
        {
            "buffer" : 0,
            "byteLength" : 20964,
            "byteOffset" : 116536,
            "target" : 34962
        },
        {
            "buffer" : 0,
            "byteLength" : 20964,
            "byteOffset" : 137500,
            "target" : 34962
        },
        {
            "buffer" : 0,
            "byteLength" : 5292,
            "byteOffset" : 158464,
            "target" : 34962
        },
        {
            "buffer" : 0,
            "byteLength" : 3528,
            "byteOffset" : 163756,
            "target" : 34962
        },
        {
            "buffer" : 0,
            "byteLength" : 5292,
            "byteOffset" : 167284,
            "target" : 34962
        },
        {
            "buffer" : 0,
            "byteLength" : 4404,
            "byteOffset" : 172576,
            "target" : 34963
        },
        {
            "buffer" : 0,
            "byteLength" : 5292,
            "byteOffset" : 176980,
            "target" : 34962
        },
        {
            "buffer" : 0,
            "byteLength" : 5292,
            "byteOffset" : 182272,
            "target" : 34962
        },
        {
            "buffer" : 0,
            "byteLength" : 5292,
            "byteOffset" : 187564,
            "target" : 34962
        },
        {
            "buffer" : 0,
            "byteLength" : 5292,
            "byteOffset" : 192856,
            "target" : 34962
        },
        {
            "buffer" : 0,
            "byteLength" : 218088,
            "byteOffset" : 198148,
            "target" : 34962
        },
        {
            "buffer" : 0,
            "byteLength" : 145392,
            "byteOffset" : 416236,
            "target" : 34962
        },
        {
            "buffer" : 0,
            "byteLength" : 218088,
            "byteOffset" : 561628,
            "target" : 34962
        },
        {
            "buffer" : 0,
            "byteLength" : 195816,
            "byteOffset" : 779716,
            "target" : 34963
        },
        {
            "buffer" : 0,
            "byteLength" : 218088,
            "byteOffset" : 975532,
            "target" : 34962
        },
        {
            "buffer" : 0,
            "byteLength" : 218088,
            "byteOffset" : 1193620,
            "target" : 34962
        },
        {
            "buffer" : 0,
            "byteLength" : 218088,
            "byteOffset" : 1411708,
            "target" : 34962
        },
        {
            "buffer" : 0,
            "byteLength" : 218088,
            "byteOffset" : 1629796,
            "target" : 34962
        },
        {
            "buffer" : 0,
            "byteLength" : 900,
            "byteOffset" : 1847884,
            "target" : 34962
        },
        {
            "buffer" : 0,
            "byteLength" : 600,
            "byteOffset" : 1848784,
            "target" : 34962
        },
        {
            "buffer" : 0,
            "byteLength" : 900,
            "byteOffset" : 1849384,
            "target" : 34962
        },
        {
            "buffer" : 0,
            "byteLength" : 648,
            "byteOffset" : 1850284,
            "target" : 34963
        },
        {
            "buffer" : 0,
            "byteLength" : 900,
            "byteOffset" : 1850932,
            "target" : 34962
        },
        {
            "buffer" : 0,
            "byteLength" : 900,
            "byteOffset" : 1851832,
            "target" : 34962
        },
        {
            "buffer" : 0,
            "byteLength" : 900,
            "byteOffset" : 1852732,
            "target" : 34962
        },
        {
            "buffer" : 0,
            "byteLength" : 900,
            "byteOffset" : 1853632,
            "target" : 34962
        }
    ],
    "buffers" : [
        {
            "byteLength" : 1854532,
            "uri" : "data:application/octet-stream;base64,"
        }
    ]
}
